<svg width="16" height="12" viewBox="0 0 16 12" fill="none" xmlns="http://www.w3.org/2000/svg">
<g filter="url(#filter0_d_430802_1304)">
<path d="M11.4607 0.489373C11.6251 0.344946 11.8438 0.265101 12.0707 0.266686C12.2976 0.268271 12.515 0.351162 12.6769 0.497868C12.8389 0.644574 12.9328 0.843621 12.9388 1.05301C12.9448 1.26239 12.8624 1.46574 12.7091 1.62014L8.05408 6.99399C7.97404 7.07357 7.87743 7.13744 7.77004 7.18177C7.66264 7.2261 7.54667 7.24998 7.42904 7.252C7.31142 7.25401 7.19456 7.2341 7.08546 7.19347C6.97637 7.15284 6.87726 7.09232 6.79408 7.01553L3.70708 4.16599C3.62111 4.09205 3.55216 4.00288 3.50434 3.9038C3.45651 3.80472 3.4308 3.69777 3.42873 3.58932C3.42665 3.48087 3.44826 3.37315 3.49227 3.27258C3.53628 3.172 3.60178 3.08065 3.68487 3.00395C3.76796 2.92725 3.86693 2.86679 3.97588 2.82616C4.08484 2.78554 4.20154 2.76559 4.31903 2.76751C4.43651 2.76942 4.55238 2.79316 4.65971 2.8373C4.76704 2.88145 4.86364 2.9451 4.94375 3.02445L7.38675 5.27845L11.4386 0.513066C11.4459 0.504775 11.4537 0.496865 11.4619 0.489373H11.4607Z" fill="#F4F4FD"/>
</g>
<defs>
<filter id="filter0_d_430802_1304" x="-0.571411" y="0.266663" width="17.5105" height="14.9855" filterUnits="userSpaceOnUse" color-interpolation-filters="sRGB">
<feFlood flood-opacity="0" result="BackgroundImageFix"/>
<feColorMatrix in="SourceAlpha" type="matrix" values="0 0 0 0 0 0 0 0 0 0 0 0 0 0 0 0 0 0 127 0" result="hardAlpha"/>
<feOffset dy="4"/>
<feGaussianBlur stdDeviation="2"/>
<feComposite in2="hardAlpha" operator="out"/>
<feColorMatrix type="matrix" values="0 0 0 0 0 0 0 0 0 0 0 0 0 0 0 0 0 0 0.25 0"/>
<feBlend mode="normal" in2="BackgroundImageFix" result="effect1_dropShadow_430802_1304"/>
<feBlend mode="normal" in="SourceGraphic" in2="effect1_dropShadow_430802_1304" result="shape"/>
</filter>
</defs>
</svg>
