<svg aria-hidden="true" style="position: absolute; width: 0; height: 0; overflow: hidden;" version="1.1" xmlns="http://www.w3.org/2000/svg" xmlns:xlink="http://www.w3.org/1999/xlink">
<defs>
<symbol id="icon-diagram-1" viewBox="0 0 40 40">
<path fill="#4d5ae5" style="fill: var(--color1, #4d5ae5)" d="M18.657 18.706h1.333v5.997h-1.333v-5.997z"></path>
<path fill="#4d5ae5" style="fill: var(--color1, #4d5ae5)" d="M23.987 21.371h1.333v3.332h-1.333v-3.332z"></path>
<path fill="#4d5ae5" style="fill: var(--color1, #4d5ae5)" d="M13.326 23.37h1.333v1.333h-1.333v-1.333z"></path>
<path fill="#4d5ae5" style="fill: var(--color1, #4d5ae5)" d="M9.328 22.704h1.333v1.999h-1.333v-1.999z"></path>
<path fill="#2e2f42" style="fill: var(--color2, #2e2f42)" d="M1.999 35.364h31.983c1.104 0 1.999-0.895 1.999-1.999v-2.665c0-1.104-0.895-1.999-1.999-1.999h-0.666v-16.617l3.785-3.585c0.878 0.433 1.942 0.17 2.517-0.623s0.495-1.885-0.191-2.586-1.775-0.805-2.581-0.247c-0.806 0.558-1.092 1.615-0.678 2.503l-2.852 2.703v-1.537c0-1.104-0.895-1.999-1.999-1.999h-26.653c-1.104 0-1.999 0.895-1.999 1.999v19.99h-0.666c-1.104 0-1.999 0.895-1.999 1.999v2.665c0 1.104 0.895 1.999 1.999 1.999zM37.98 6.046c0.368 0 0.666 0.298 0.666 0.666s-0.298 0.666-0.666 0.666c-0.368 0-0.666-0.298-0.666-0.666s0.298-0.666 0.666-0.666zM3.998 8.711c0-0.368 0.298-0.666 0.666-0.666h26.653c0.368 0 0.666 0.298 0.666 0.666v2.798l-1.333 1.266v-2.732c0-0.368-0.298-0.666-0.666-0.666h-23.987c-0.368 0-0.666 0.298-0.666 0.666v16.658c0 0.368 0.298 0.666 0.666 0.666h23.987c0.368 0 0.666-0.298 0.666-0.666v-12.093l1.333-1.263v15.355h-27.985v-19.99zM9.995 17.373c-0.901-0.003-1.693 0.598-1.933 1.467s0.131 1.791 0.907 2.251c0.775 0.46 1.762 0.344 2.41-0.282l2.316 1.162c0.269 0.135 0.595 0.072 0.795-0.153l4.924-5.539 4.84 3.627c0.26 0.195 0.622 0.174 0.858-0.049l4.206-3.985v10.164h-22.655v-15.325h22.655v3.325l-4.714 4.464-4.881-3.659c-0.277-0.208-0.667-0.169-0.898 0.090l-4.991 5.616-1.866-0.933c0.014-0.080 0.022-0.161 0.025-0.242 0-1.104-0.895-1.999-1.999-1.999zM10.661 19.372c0 0.368-0.298 0.666-0.666 0.666s-0.666-0.298-0.666-0.666c0-0.368 0.298-0.666 0.666-0.666s0.666 0.298 0.666 0.666zM14.659 30.033h6.663v0.666c0 0.368-0.298 0.666-0.666 0.666h-5.331c-0.368 0-0.666-0.298-0.666-0.666v-0.666zM1.333 30.699c0-0.368 0.298-0.666 0.666-0.666h11.327v0.666c0 1.104 0.895 1.999 1.999 1.999h5.331c1.104 0 1.999-0.895 1.999-1.999v-0.666h11.327c0.368 0 0.666 0.298 0.666 0.666v2.665c0 0.368-0.298 0.666-0.666 0.666h-31.983c-0.368 0-0.666-0.298-0.666-0.666v-2.665z"></path>
</symbol>
<symbol id="icon-astronaut-1" viewBox="0 0 40 40">
<path fill="#4d5ae5" style="fill: var(--color1, #4d5ae5)" d="M39.968 5.655c-0.079-0.241-0.287-0.417-0.538-0.453l-2.388-0.347-1.069-2.164c-0.224-0.456-0.971-0.456-1.195 0l-1.069 2.164-2.388 0.347c-0.251 0.037-0.459 0.212-0.539 0.453-0.078 0.241-0.013 0.507 0.169 0.683l1.729 1.685-0.408 2.379c-0.043 0.25 0.060 0.503 0.265 0.652 0.207 0.151 0.478 0.169 0.703 0.051l2.136-1.123 2.136 1.123c0.097 0.051 0.205 0.077 0.311 0.077 0.138 0 0.276-0.043 0.392-0.127 0.205-0.149 0.308-0.402 0.265-0.652l-0.408-2.379 1.729-1.685c0.181-0.177 0.246-0.442 0.168-0.683zM36.889 7.314c-0.157 0.153-0.229 0.374-0.191 0.59l0.239 1.393-1.251-0.657c-0.097-0.051-0.204-0.077-0.311-0.077s-0.213 0.025-0.311 0.077l-1.251 0.657 0.239-1.393c0.037-0.216-0.035-0.437-0.191-0.59l-1.013-0.987 1.399-0.203c0.217-0.031 0.405-0.168 0.502-0.365l0.625-1.267 0.625 1.267c0.097 0.197 0.285 0.333 0.502 0.365l1.399 0.203-1.011 0.987z"></path>
<path fill="#4d5ae5" style="fill: var(--color1, #4d5ae5)" d="M32.667 25.653h-1.333v1.333h1.333v-1.333z"></path>
<path fill="#4d5ae5" style="fill: var(--color1, #4d5ae5)" d="M32.667 28.319h-1.333v1.333h1.333v-1.333z"></path>
<path fill="#4d5ae5" style="fill: var(--color1, #4d5ae5)" d="M34 26.986h-1.333v1.333h1.333v-1.333z"></path>
<path fill="#4d5ae5" style="fill: var(--color1, #4d5ae5)" d="M31.334 26.986h-1.333v1.333h1.333v-1.333z"></path>
<path fill="#4d5ae5" style="fill: var(--color1, #4d5ae5)" d="M28 32.986h-1.333v1.333h1.333v-1.333z"></path>
<path fill="#4d5ae5" style="fill: var(--color1, #4d5ae5)" d="M28 35.653h-1.333v1.333h1.333v-1.333z"></path>
<path fill="#4d5ae5" style="fill: var(--color1, #4d5ae5)" d="M29.334 34.32h-1.333v1.333h1.333v-1.333z"></path>
<path fill="#4d5ae5" style="fill: var(--color1, #4d5ae5)" d="M26.667 34.32h-1.333v1.333h1.333v-1.333z"></path>
<path fill="#4d5ae5" style="fill: var(--color1, #4d5ae5)" d="M20 30.32h-1.333v1.333h1.333v-1.333z"></path>
<path fill="#4d5ae5" style="fill: var(--color1, #4d5ae5)" d="M20 32.986h-1.333v1.333h1.333v-1.333z"></path>
<path fill="#4d5ae5" style="fill: var(--color1, #4d5ae5)" d="M21.333 31.653h-1.333v1.333h1.333v-1.333z"></path>
<path fill="#4d5ae5" style="fill: var(--color1, #4d5ae5)" d="M18.667 31.653h-1.333v1.333h1.333v-1.333z"></path>
<path fill="#4d5ae5" style="fill: var(--color1, #4d5ae5)" d="M7.333 7.652h-1.333v1.333h1.333v-1.333z"></path>
<path fill="#4d5ae5" style="fill: var(--color1, #4d5ae5)" d="M7.333 10.319h-1.333v1.333h1.333v-1.333z"></path>
<path fill="#4d5ae5" style="fill: var(--color1, #4d5ae5)" d="M8.666 8.986h-1.333v1.333h1.333v-1.333z"></path>
<path fill="#4d5ae5" style="fill: var(--color1, #4d5ae5)" d="M6 8.986h-1.333v1.333h1.333v-1.333z"></path>
<path fill="#2e2f42" style="fill: var(--color2, #2e2f42)" d="M30.893 17.699c-0.359-0.485-0.887-0.797-1.485-0.881-0.601-0.085-1.195 0.073-1.675 0.44l-1.565 1.2-2.372 1.771-1.697-0.676c3.027-1.358 5.142-4.385 5.142-7.9 0-4.779-3.903-8.667-8.701-8.667s-8.701 3.888-8.701 8.667c0 1.732 0.518 3.343 1.4 4.698l-3.455-0.030c-0.002 0-0.004 0-0.006 0-0.011 0-0.019 0.005-0.029 0.006-0.066 0.003-0.131 0.016-0.194 0.039-0.016 0.006-0.033 0.009-0.048 0.017-0.008 0.003-0.016 0.004-0.024 0.008l-4.041 1.995c-0.001 0-0.001 0-0.001 0.001l-2.367 1.138c-0.026 0.011-0.053 0.027-0.079 0.044-0.943 0.628-1.265 1.861-0.748 2.869 0.275 0.536 0.744 0.931 1.32 1.111 0.222 0.069 0.449 0.103 0.674 0.103 0.362 0 0.721-0.089 1.049-0.264l1.735-0.923 2.83-1.461 1.696-0.010-6.802 6.769c-0.001 0.001-0.001 0.001-0.002 0.001l-1.673 1.667c-0.395 0.393-0.613 0.915-0.613 1.472s0.217 1.079 0.613 1.473c0.406 0.404 0.94 0.607 1.474 0.607s1.068-0.203 1.475-0.607l1.643-1.636 2.176-1.625 1.126 1.121-2.202 2.193c-0.001 0.001-0.001 0.001-0.002 0.001l-1.673 1.667c-0.395 0.393-0.613 0.915-0.613 1.472s0.217 1.079 0.613 1.473c0.406 0.404 0.941 0.607 1.475 0.607s1.069-0.203 1.475-0.607l4.352-4.333c0.001-0.001 0.001-0.001 0.001-0.002l1.262-1.25-0.005-0.005c0.008-0.008 0.019-0.011 0.027-0.019l6.457-7.073 4.339 0.617c0.031 0.005 0.063 0.007 0.094 0.007 0.081 0 0.159-0.019 0.234-0.048 0.022-0.008 0.041-0.019 0.062-0.029 0.024-0.012 0.049-0.019 0.072-0.034l4.017-2.667c0.015-0.010 0.023-0.026 0.037-0.037 0.016-0.013 0.036-0.018 0.051-0.032l1.589-1.489c0.827-0.775 0.941-2.044 0.265-2.952zM2.663 22.213c-0.217 0.116-0.463 0.139-0.698 0.065-0.233-0.073-0.423-0.232-0.533-0.447-0.201-0.392-0.085-0.869 0.268-1.127l1.642-0.79 0.561 1.641-1.24 0.659zM7.034 19.928l-1.935 1-0.549-1.604 2.533-1.251-0.049 1.855zM25.909 11.652c0 1.148-0.274 2.231-0.749 3.199l-5.227-2.374c-0.055-0.717-0.427-1.344-0.985-1.735l1.83-6.075c2.972 0.945 5.131 3.718 5.131 6.985zM11.173 11.652c0-4.043 3.305-7.333 7.368-7.333 0.316 0 0.625 0.027 0.931 0.065l-1.79 5.942c-0.024-0.001-0.047-0.007-0.071-0.007-1.291 0-2.341 1.047-2.341 2.333s1.050 2.333 2.341 2.333c0.868 0 1.618-0.479 2.023-1.181l4.828 2.193c-1.343 1.808-3.493 2.987-5.921 2.987-4.063 0-7.368-3.29-7.368-7.334zM18.618 12.653c0 0.551-0.452 1-1.007 1s-1.007-0.449-1.007-1c0-0.551 0.452-1 1.007-1s1.007 0.449 1.007 1zM3.081 31.433c-0.295 0.293-0.773 0.292-1.068 0.001-0.142-0.142-0.22-0.329-0.22-0.529s0.078-0.386 0.22-0.527l1.203-1.198 1.064 1.059-1.199 1.193zM7.098 36.1c-0.295 0.293-0.774 0.293-1.069 0.001-0.142-0.142-0.22-0.329-0.22-0.529s0.078-0.386 0.22-0.527l1.203-1.199 1.065 1.059-1.199 1.194zM11.451 31.764c-0.001 0.001-0.001 0.001-0.002 0.001l-2.206 2.2-1.065-1.059 2.204-2.194c0 0 0 0 0-0.001s0.001-0.001 0.002-0.001c0.050-0.050 0.081-0.11 0.112-0.169 0.009-0.017 0.025-0.032 0.033-0.050 0.021-0.051 0.024-0.107 0.032-0.161 0.004-0.031 0.017-0.059 0.017-0.091 0-0.045-0.016-0.088-0.025-0.132-0.008-0.040-0.008-0.081-0.023-0.119-0.025-0.063-0.069-0.118-0.114-0.172-0.013-0.015-0.017-0.033-0.031-0.047 0 0 0 0-0.001 0s-0.001-0.002-0.001-0.003l-2.009-2c-0.021-0.021-0.049-0.030-0.073-0.048-0.035-0.027-0.069-0.053-0.109-0.072-0.038-0.019-0.077-0.030-0.117-0.041-0.043-0.012-0.084-0.021-0.129-0.025-0.041-0.003-0.079 0.001-0.119 0.006-0.045 0.005-0.087 0.011-0.13 0.025-0.042 0.013-0.079 0.034-0.118 0.056-0.025 0.014-0.053 0.019-0.076 0.036l-2.217 1.655-1.126-1.121 2.999-2.983 5.451 5.361-1.159 1.149zM19.974 22.993c-0.019-0.003-0.037 0.005-0.057 0.003-0.049-0.003-0.095 0.001-0.144 0.009-0.038 0.007-0.074 0.014-0.11 0.027-0.043 0.015-0.081 0.035-0.121 0.059-0.037 0.023-0.071 0.047-0.104 0.077-0.016 0.014-0.035 0.021-0.050 0.037l-5.873 6.432-5.41-5.321 3.541-3.523c0.261-0.26 0.262-0.682 0.002-0.943-0.131-0.131-0.304-0.196-0.477-0.195v-0.001l-2.773 0.017 0.035-2.009 3.88 0.033c1.581 1.617 3.787 2.626 6.227 2.626 0.547 0 1.080-0.057 1.599-0.153 0.050 0.040 0.099 0.081 0.162 0.106l3.012 1.2 0.191 0.948 0.223 1.107-3.753-0.534zM25.025 23.215l-0.391-1.947 1.808-1.35 1.183 1.571-2.6 1.727zM29.717 19.677l-1.047 0.981-1.164-1.545 1.039-0.797c0.194-0.149 0.439-0.21 0.679-0.179 0.241 0.034 0.455 0.16 0.6 0.355 0.271 0.365 0.225 0.873-0.107 1.184z"></path>
<path fill="#2e2f42" style="fill: var(--color2, #2e2f42)" d="M17.003 23.18l-2.679-2.667c-0.259-0.259-0.681-0.259-0.941 0l-2.678 2.667c-0.125 0.126-0.196 0.295-0.196 0.473s0.070 0.347 0.196 0.473l2.678 2.667c0.13 0.129 0.301 0.194 0.471 0.194s0.341-0.065 0.47-0.194l2.679-2.667c0.125-0.125 0.197-0.295 0.197-0.473s-0.071-0.347-0.197-0.473zM13.854 25.379l-1.733-1.726 1.733-1.726 1.734 1.726-1.734 1.726z"></path>
<path fill="#2e2f42" style="fill: var(--color2, #2e2f42)" d="M21.455 6.338l-0.322 1.295c0.089 0.022 2.172 0.565 2.172 2.686h1.333c-0-2.521-2.082-3.707-3.183-3.981z"></path>
<path fill="#2e2f42" style="fill: var(--color2, #2e2f42)" d="M24.639 11.652h-1.333v1.333h1.333v-1.333z"></path>
</symbol>
<symbol id="icon-clock-1" viewBox="0 0 40 40">
<path fill="#2e2f42" style="fill: var(--color2, #2e2f42)" d="M39.121 19.127c-0.002-10.565-8.569-19.129-19.135-19.127s-19.129 8.569-19.127 19.135c0.002 8.322 5.384 15.689 13.312 18.22 0.076 0.024 0.154 0.036 0.234 0.036 0.151-0 0.298-0.041 0.428-0.117 0.169-0.1 0.295-0.259 0.354-0.446l4.831-15.313c1.321-0.007 2.386-1.083 2.379-2.404s-1.083-2.386-2.404-2.379c-0.355 0.001-0.706 0.083-1.025 0.239l-6.382-6.383c-0.317-0.306-0.821-0.297-1.127 0.019-0.299 0.309-0.299 0.799 0 1.108l6.379 6.386c-0.489 0.999-0.21 2.205 0.671 2.886l-4.603 14.591c-9.097-3.351-13.755-13.442-10.404-22.54s13.442-13.756 22.54-10.404c9.097 3.351 13.755 13.443 10.404 22.54-1.637 4.445-5.001 8.039-9.328 9.967l-0.497-2.343c-0.091-0.431-0.514-0.706-0.945-0.615-0.136 0.029-0.262 0.093-0.366 0.185l-4.796 4.282c-0.329 0.293-0.358 0.796-0.065 1.126 0.095 0.107 0.217 0.186 0.354 0.23l6.123 1.954c0.419 0.135 0.868-0.096 1.003-0.515 0.043-0.132 0.050-0.273 0.021-0.41l-0.489-2.299c7.080-2.985 11.678-9.928 11.661-17.611zM19.99 18.329c0.44 0 0.797 0.357 0.797 0.797s-0.357 0.797-0.797 0.797c-0.44 0-0.797-0.357-0.797-0.797s0.357-0.797 0.797-0.797zM22.616 36.909l2.73-2.435 0.754 3.55-3.484-1.115z"></path>
<path fill="#4d5ae5" style="fill: var(--color1, #4d5ae5)" d="M19.193 3.981v1.594c0 0.44 0.357 0.797 0.797 0.797s0.797-0.357 0.797-0.797v-1.594c0-0.44-0.357-0.797-0.797-0.797s-0.797 0.357-0.797 0.797z"></path>
<path fill="#4d5ae5" style="fill: var(--color1, #4d5ae5)" d="M4.845 18.329c-0.44 0-0.797 0.357-0.797 0.797s0.357 0.797 0.797 0.797h1.594c0.44 0 0.797-0.357 0.797-0.797s-0.357-0.797-0.797-0.797h-1.594z"></path>
<path fill="#4d5ae5" style="fill: var(--color1, #4d5ae5)" d="M35.135 19.924c0.44 0 0.797-0.357 0.797-0.797s-0.357-0.797-0.797-0.797h-1.594c-0.44 0-0.797 0.357-0.797 0.797s0.357 0.797 0.797 0.797h1.594z"></path>
</symbol>
<symbol id="icon-antenna-1" viewBox="0 0 40 40">
<path fill="#2e2f42" style="fill: var(--color2, #2e2f42)" d="M38.466 27.622l-10.554-10.631 1.171-5.769c0.302 0.118 0.624 0.18 0.948 0.182h0.008c1.49 0.018 2.713-1.176 2.73-2.667s-1.176-2.713-2.667-2.73c-1.49-0.018-2.713 1.176-2.73 2.667-0.004 0.319 0.049 0.636 0.156 0.936l-6.2 0.757-10.113-10.166c-0.124-0.127-0.293-0.199-0.471-0.2-0.175 0.001-0.343 0.071-0.467 0.194l-1.891 1.88c-0.26 0.26-0.26 0.682 0 0.943l1.017 1.032c-3.941 7.247-2.661 16.222 3.149 22.079 0.053 0.051 0.115 0.092 0.183 0.122-0.042 0.226-0.064 0.454-0.065 0.684v7.733h-8c-1.84 0.002-3.331 1.493-3.333 3.333v1.333c0 0.368 0.299 0.667 0.667 0.667h30.667c0.368 0 0.667-0.299 0.667-0.667v-1.333c-0.002-1.84-1.493-3.331-3.333-3.333h-8v-3.427c1.253 0.263 2.53 0.397 3.811 0.4 3.073-0.003 6.096-0.769 8.8-2.229l1.023 1.029c0.124 0.127 0.293 0.199 0.471 0.2 0.175-0.001 0.343-0.071 0.467-0.194l1.891-1.88c0.26-0.26 0.26-0.682 0-0.943zM29.1 7.791c0.522-0.519 1.366-0.517 1.886 0.005s0.517 1.366-0.005 1.886c-0.25 0.249-0.588 0.388-0.941 0.388h-0.004c-0.736-0.004-1.33-0.604-1.326-1.34 0.002-0.352 0.143-0.69 0.393-0.938h-0.003zM27.53 12.172l-0.748 3.682-1.469-1.478 2.217-2.204zM26.773 11.045l-2.4 2.386-1.857-1.867 4.257-0.519zM30.005 36c1.105 0 2 0.895 2 2v0.667h-29.333v-0.667c0-1.105 0.895-2 2-2h25.333zM20.672 33.333v1.333h-6.667v-1.333h6.667zM14.005 32v-5.067c0-1.617 1.495-2.933 3.333-2.933s3.333 1.316 3.333 2.933v5.067h-6.667zM22.005 29.88v-2.947c0-2.353-2.093-4.267-4.667-4.267-1.664-0.026-3.22 0.821-4.101 2.233-5.072-5.342-6.214-13.306-2.848-19.859l23.252 23.386c-3.591 1.826-7.706 2.341-11.636 1.454zM36.116 29.025l-26.321-26.476 0.943-0.94 9.919 9.975c0.005 0 0.007 0.009 0.012 0.012l16.393 16.489-0.946 0.94z"></path>
<path fill="#4d5ae5" style="fill: var(--color1, #4d5ae5)" d="M17.344 25.333h-0.006c-1.105-0.002-2.001 0.892-2.003 1.997s0.892 2.001 1.997 2.003h0.006c1.105 0.002 2.001-0.892 2.003-1.997s-0.892-2.001-1.997-2.003zM17.811 27.806c-0.126 0.125-0.296 0.195-0.473 0.194-0.368-0.002-0.665-0.302-0.663-0.67 0.001-0.176 0.072-0.345 0.196-0.469 0.124-0.123 0.292-0.193 0.467-0.194 0.368 0.002 0.665 0.302 0.663 0.67-0.001 0.176-0.072 0.345-0.196 0.469h0.006z"></path>
</symbol>
<symbol id="icon-Logo6" viewBox="0 0 74 40">
<path d="M38.235 19.602c-0.317-0.422-0.469-0.921-0.433-1.423v-2.063c0-0.632 0.144-1.113 0.43-1.442s0.78-0.492 1.479-0.491c0.657 0 1.123 0.14 1.398 0.42 0.301 0.357 0.447 0.794 0.413 1.234v0.485h-1.175v-0.491c0.004-0.161-0.007-0.321-0.034-0.481-0.017-0.109-0.076-0.209-0.168-0.285-0.121-0.082-0.273-0.122-0.426-0.111-0.161-0.010-0.321 0.031-0.447 0.117-0.102 0.084-0.171 0.195-0.195 0.315-0.034 0.168-0.049 0.339-0.046 0.51v2.504c-0.019 0.241 0.033 0.483 0.151 0.703 0.058 0.074 0.14 0.133 0.234 0.17s0.2 0.051 0.303 0.039c0.151 0.011 0.3-0.030 0.416-0.113 0.096-0.082 0.157-0.189 0.175-0.304 0.027-0.166 0.040-0.334 0.036-0.502v-0.508h1.175v0.464c0.033 0.459-0.11 0.915-0.406 1.297-0.27 0.306-0.73 0.46-1.406 0.46s-1.187-0.164-1.476-0.504z"></path>
<path d="M43.126 19.623c-0.297-0.321-0.445-0.789-0.445-1.408v-2.17c0-0.613 0.148-1.077 0.445-1.391s0.793-0.471 1.488-0.47c0.691 0 1.184 0.157 1.481 0.47 0.297 0.315 0.447 0.779 0.447 1.391v2.17c0 0.613-0.151 1.083-0.452 1.406s-0.793 0.485-1.476 0.485-1.189-0.164-1.488-0.483zM45.161 19.103c0.106-0.201 0.155-0.421 0.141-0.642v-2.657c0.014-0.216-0.034-0.433-0.139-0.63-0.060-0.076-0.143-0.136-0.24-0.173s-0.204-0.050-0.31-0.037c-0.106-0.013-0.213 0-0.311 0.037s-0.181 0.097-0.241 0.173c-0.107 0.196-0.155 0.413-0.141 0.63v2.669c-0.015 0.221 0.034 0.441 0.141 0.642 0.069 0.068 0.153 0.122 0.248 0.159s0.198 0.056 0.302 0.056 0.207-0.019 0.302-0.056c0.095-0.037 0.179-0.091 0.248-0.159v-0.013z"></path>
<path d="M47.956 14.247h1.265l0.951 4.004 0.973-4.004h1.231l0.124 5.779h-0.91l-0.097-4.016-0.939 4.016h-0.73l-0.973-4.031-0.090 4.031h-0.919l0.114-5.779z"></path>
<path d="M53.916 14.247h1.97c1.135 0 1.702 0.547 1.702 1.641 0 1.048-0.597 1.571-1.792 1.57h-0.671v2.568h-1.216l0.007-5.779zM55.599 16.717c0.12 0.013 0.242 0.004 0.358-0.028s0.222-0.084 0.311-0.155c0.139-0.195 0.201-0.424 0.175-0.653 0.006-0.176-0.013-0.353-0.058-0.525-0.017-0.057-0.048-0.111-0.089-0.159s-0.094-0.087-0.154-0.116c-0.169-0.070-0.355-0.102-0.542-0.092h-0.472v1.727h0.472z"></path>
<path d="M59.342 14.247h1.306l1.34 5.779h-1.133l-0.265-1.333h-1.165l-0.272 1.333h-1.15l1.34-5.779zM60.458 18.024l-0.455-2.426-0.455 2.426h0.91z"></path>
<path d="M63.070 14.247h0.851l1.629 3.297v-3.297h1.009v5.779h-0.81l-1.639-3.441v3.441h-1.043l0.002-5.779z"></path>
<path d="M68.924 17.823l-1.355-3.567h1.141l0.827 2.291 0.776-2.291h1.116l-1.338 3.567v2.203h-1.167v-2.203z"></path>
<path d="M40.113 22.553v0.302h-0.992v2.348h-0.416v-2.348h-0.997v-0.302h2.405z"></path>
<path d="M43.223 25.203h-0.321c-0.033 0.002-0.065-0.007-0.090-0.025-0.024-0.015-0.043-0.036-0.054-0.061l-0.287-0.629h-1.376l-0.287 0.629c-0.008 0.026-0.023 0.051-0.044 0.071-0.026 0.018-0.057 0.026-0.090 0.025h-0.321l1.216-2.65h0.423l1.231 2.64zM41.209 24.219h1.148l-0.486-1.079c-0.036-0.082-0.066-0.165-0.090-0.25-0.017 0.050-0.032 0.099-0.046 0.141l-0.044 0.111-0.482 1.076z"></path>
<path d="M45.319 24.943c0.076 0.003 0.152 0.003 0.229 0 0.066-0.006 0.131-0.016 0.195-0.031 0.060-0.013 0.118-0.029 0.175-0.048 0.054-0.019 0.107-0.042 0.163-0.065v-0.596h-0.486c-0.012 0.001-0.024-0.001-0.035-0.005s-0.022-0.009-0.030-0.016c-0.008-0.006-0.014-0.013-0.019-0.022s-0.006-0.017-0.006-0.027v-0.204h0.944v1.016c-0.077 0.048-0.158 0.090-0.243 0.126-0.087 0.037-0.177 0.067-0.27 0.090-0.099 0.025-0.201 0.044-0.304 0.055-0.118 0.011-0.236 0.017-0.355 0.017-0.21 0.002-0.418-0.032-0.613-0.099-0.182-0.063-0.348-0.157-0.486-0.277-0.135-0.121-0.242-0.263-0.314-0.42-0.077-0.176-0.115-0.362-0.112-0.55-0.003-0.189 0.034-0.377 0.109-0.554 0.070-0.157 0.177-0.3 0.314-0.42 0.139-0.119 0.304-0.213 0.486-0.275 0.208-0.068 0.429-0.101 0.652-0.099 0.113-0 0.226 0.008 0.338 0.023 0.099 0.014 0.196 0.036 0.289 0.067 0.085 0.028 0.167 0.063 0.243 0.105 0.074 0.041 0.145 0.088 0.212 0.139l-0.117 0.164c-0.009 0.015-0.023 0.027-0.039 0.036s-0.036 0.014-0.055 0.014c-0.027-0.001-0.053-0.008-0.075-0.021-0.036-0.017-0.075-0.038-0.119-0.063-0.052-0.028-0.106-0.052-0.163-0.071-0.072-0.025-0.147-0.045-0.224-0.059-0.102-0.016-0.205-0.024-0.309-0.023-0.16-0.001-0.32 0.023-0.469 0.073-0.135 0.047-0.257 0.119-0.357 0.21-0.101 0.095-0.178 0.207-0.226 0.329-0.109 0.287-0.109 0.596 0 0.884 0.053 0.125 0.136 0.238 0.243 0.334 0.1 0.091 0.221 0.162 0.355 0.21 0.155 0.046 0.319 0.064 0.481 0.053z"></path>
<path d="M49.196 24.901h1.328v0.302h-1.734v-2.65h0.416l-0.010 2.348z"></path>
<path d="M51.905 25.203h-0.416v-2.65h0.416v2.65z"></path>
<path d="M53.452 22.565c0.025 0.012 0.046 0.029 0.063 0.048l1.778 1.998c-0.002-0.031-0.002-0.063 0-0.094 0-0.029 0-0.059 0-0.086v-1.889h0.362v2.661h-0.209c-0.031 0.002-0.062-0.003-0.090-0.015-0.025-0.013-0.047-0.030-0.066-0.050l-1.775-1.996c0 0.031 0 0.061 0 0.090s0 0.057 0 0.082v1.889h-0.348v-2.651h0.216c0.024 0 0.047 0.004 0.068 0.013z"></path>
<path d="M58.717 22.553v0.292h-1.474v0.875h1.194v0.281h-1.194v0.904h1.474v0.292h-1.902v-2.644h1.902z"></path>
<path d="M15.139 6.185l18.466 4.524v15.854l-18.466-4.522v-15.856zM13.955 4.833v17.978l20.832 5.106v-17.976l-20.832-5.108z"></path>
<path d="M25.12 36.262l-20.834-5.11v-17.976l20.834 5.108v17.978z"></path>
<path d="M14.3 5.981l18.225 4.468-7.751 6.69-18.227-4.47 7.753-6.688zM13.955 4.833l-9.669 8.343 20.834 5.108 9.667-8.343-20.832-5.108z"></path>
<path d="M26.292 35.251l8.495-7.332-8.495-2.084v9.416z"></path>
</symbol>
<symbol id="icon-Logo5" viewBox="0 0 74 40">
<path d="M19.137 31.695c0.175 0.195 0.269 0.44 0.264 0.691 0.009 0.164-0.023 0.327-0.094 0.478s-0.178 0.286-0.315 0.395c-0.341 0.232-0.763 0.345-1.189 0.319h-2.089v-4.38h2.046c0.404-0.024 0.805 0.079 1.134 0.291 0.132 0.1 0.237 0.225 0.306 0.368s0.1 0.297 0.091 0.452c0.012 0.242-0.072 0.479-0.238 0.67-0.159 0.174-0.378 0.295-0.623 0.342 0.277 0.046 0.527 0.178 0.706 0.374zM16.686 31.034h0.875c0.199 0.013 0.396-0.038 0.556-0.146 0.066-0.054 0.117-0.12 0.149-0.194s0.046-0.154 0.038-0.234c0.006-0.079-0.007-0.159-0.039-0.233s-0.082-0.141-0.146-0.195c-0.165-0.11-0.368-0.163-0.573-0.148h-0.861v1.149zM18.203 32.714c0.070-0.055 0.125-0.124 0.161-0.201s0.051-0.161 0.046-0.244c0.005-0.084-0.011-0.169-0.048-0.247s-0.093-0.147-0.164-0.202c-0.171-0.114-0.382-0.17-0.594-0.158h-0.918v1.205h0.929c0.209 0.011 0.416-0.043 0.587-0.152z"></path>
<path d="M23.321 33.578l-1.139-1.712h-0.428v1.712h-0.979v-4.38h1.854c0.467-0.029 0.929 0.104 1.291 0.372 0.259 0.238 0.415 0.551 0.441 0.883s-0.082 0.662-0.303 0.929c-0.229 0.236-0.541 0.393-0.884 0.445l1.212 1.75h-1.065zM21.754 31.269h0.801c0.556 0 0.834-0.221 0.834-0.663 0.006-0.090-0.010-0.181-0.045-0.265s-0.090-0.162-0.16-0.227c-0.176-0.132-0.402-0.195-0.63-0.178h-0.811l0.009 1.333z"></path>
<path d="M28.673 32.697h-1.951l-0.345 0.882h-1.027l1.792-4.331h1.11l1.785 4.331h-1.027l-0.337-0.882zM28.412 32.033l-0.713-1.849-0.713 1.849h1.426z"></path>
<path d="M35.374 33.578h-0.972l-2.18-2.979v2.979h-0.97v-4.38h0.97l2.18 2.996v-2.996h0.972v4.38z"></path>
<path d="M40.922 32.53c-0.201 0.331-0.507 0.6-0.879 0.772-0.423 0.192-0.893 0.287-1.367 0.276h-1.73v-4.38h1.73c0.473-0.011 0.942 0.081 1.367 0.27 0.372 0.169 0.679 0.435 0.879 0.764 0.2 0.356 0.304 0.75 0.304 1.149s-0.104 0.793-0.304 1.149zM39.809 32.425c0.277-0.291 0.43-0.662 0.43-1.045s-0.153-0.754-0.43-1.045c-0.335-0.264-0.773-0.397-1.217-0.372h-0.675v2.835h0.675c0.444 0.025 0.882-0.109 1.217-0.372z"></path>
<path d="M29.282 4.833c0 0 12.548 4.265 12.282 10.436v10.438c0 0-12.538-4.267-12.277-10.438l-0.005-10.436z"></path>
<path d="M52.742 23.264c2.37-1.468 5.111-2.378 7.972-2.645v-3.268c-3.297 1.144-6.094 3.218-7.972 5.912z"></path>
<path d="M51.318 24.248c1.94-3.516 5.302-6.229 9.396-7.582v-9.415c0 0-17.87 6.075-17.492 14.863v14.861c0 0 0.796-0.272 2.049-0.781 0-0.475 0-0.954 0.057-1.436 0.37-4.080 2.524-7.861 5.99-10.511z"></path>
<path d="M49.619 29.769c0.094-1.031 0.303-2.050 0.625-3.043-2.158 2.289-3.465 5.129-3.736 8.121-0.026 0.282-0.040 0.565-0.048 0.856 1.015-0.439 2.196-0.986 3.437-1.631-0.317-1.416-0.41-2.864-0.278-4.303z"></path>
<path d="M50.329 29.823c-0.119 1.302-0.045 2.612 0.221 3.897 4.882-2.63 10.368-6.694 10.157-11.604v-0.428c-3.488 0.351-6.752 1.724-9.289 3.907-0.594 1.353-0.961 2.778-1.089 4.228z"></path>
</symbol>
<symbol id="icon-Logo4" viewBox="0 0 74 40">
<path d="M17.199 15.37h-0.002c-1.704 0-3.085 1.246-3.085 2.782v0.002c0 1.536 1.381 2.782 3.085 2.782h0.002c1.704 0 3.085-1.245 3.085-2.782v-0.002c0-1.536-1.381-2.782-3.085-2.782z"></path>
<path d="M39.972 14.481c-0.005-2.134-0.947-4.179-2.62-5.688s-3.942-2.359-6.308-2.364v0c-2.367 0.004-4.637 0.853-6.311 2.363s-2.617 3.555-2.622 5.69v11.767c0 0 17.86-1.793 17.862-11.766v-0.002z"></path>
<path d="M7.857 30.11c0.004 1.485 0.66 2.908 1.824 3.958s2.742 1.642 4.389 1.646c1.646-0.004 3.224-0.596 4.388-1.646s1.82-2.472 1.825-3.957v-8.188c0 0-12.427 1.249-12.427 8.186zM14.071 31.577c-0.322 0-0.636-0.086-0.904-0.247s-0.476-0.39-0.599-0.658-0.155-0.563-0.093-0.848c0.063-0.285 0.218-0.546 0.445-0.751s0.517-0.345 0.833-0.401c0.316-0.057 0.643-0.027 0.94 0.084s0.551 0.299 0.73 0.54c0.179 0.241 0.274 0.525 0.274 0.815 0.001 0.193-0.041 0.384-0.122 0.563s-0.201 0.341-0.352 0.478c-0.151 0.137-0.331 0.245-0.529 0.319s-0.41 0.112-0.624 0.112v-0.006z"></path>
<path d="M25.435 28.939v3.047h-0.628v-3.047h0.628zM26.649 30.241v0.49h-1.385v-0.49h1.385zM26.795 28.939v0.492h-1.532v-0.492h1.532zM29.662 30.392v0.144c0 0.232-0.031 0.439-0.094 0.624s-0.151 0.341-0.266 0.471c-0.114 0.128-0.251 0.227-0.41 0.295-0.158 0.068-0.333 0.103-0.525 0.103-0.191 0-0.366-0.034-0.525-0.103-0.158-0.068-0.294-0.167-0.41-0.295-0.116-0.13-0.206-0.287-0.27-0.471-0.063-0.184-0.094-0.392-0.094-0.624v-0.144c0-0.233 0.031-0.441 0.094-0.624 0.063-0.184 0.151-0.341 0.266-0.471 0.116-0.13 0.253-0.229 0.41-0.297 0.159-0.068 0.334-0.103 0.525-0.103 0.193 0 0.368 0.034 0.525 0.103 0.159 0.068 0.296 0.167 0.41 0.297 0.116 0.13 0.205 0.287 0.268 0.471 0.064 0.183 0.096 0.391 0.096 0.624zM29.028 30.536v-0.149c0-0.162-0.015-0.304-0.044-0.427s-0.072-0.226-0.13-0.31-0.127-0.146-0.209-0.188c-0.082-0.043-0.176-0.065-0.282-0.065s-0.2 0.022-0.282 0.065c-0.081 0.042-0.15 0.105-0.207 0.188-0.056 0.084-0.098 0.187-0.128 0.31s-0.044 0.265-0.044 0.427v0.149c0 0.16 0.015 0.303 0.044 0.427 0.029 0.123 0.072 0.227 0.13 0.312 0.057 0.084 0.127 0.147 0.209 0.19s0.176 0.065 0.282 0.065c0.106 0 0.2-0.022 0.282-0.065s0.151-0.107 0.207-0.19c0.056-0.085 0.098-0.189 0.128-0.312 0.029-0.124 0.044-0.266 0.044-0.427zM31.7 31.189c0-0.054-0.008-0.103-0.025-0.146-0.015-0.045-0.045-0.085-0.088-0.121-0.043-0.038-0.104-0.075-0.182-0.111s-0.179-0.074-0.303-0.113c-0.138-0.045-0.269-0.095-0.393-0.151-0.123-0.056-0.232-0.121-0.326-0.195-0.094-0.075-0.167-0.163-0.222-0.262-0.053-0.099-0.079-0.214-0.079-0.345 0-0.127 0.028-0.242 0.084-0.345 0.056-0.105 0.134-0.194 0.234-0.268 0.1-0.075 0.219-0.133 0.356-0.174 0.138-0.041 0.289-0.061 0.454-0.061 0.225 0 0.421 0.041 0.588 0.121s0.297 0.192 0.389 0.333c0.093 0.141 0.14 0.302 0.14 0.483h-0.624c0-0.089-0.019-0.167-0.056-0.234-0.036-0.068-0.092-0.122-0.167-0.161-0.074-0.039-0.167-0.059-0.28-0.059-0.109 0-0.199 0.017-0.272 0.050-0.073 0.032-0.127 0.076-0.163 0.132-0.036 0.054-0.054 0.116-0.054 0.184 0 0.052 0.013 0.098 0.038 0.14 0.026 0.042 0.066 0.081 0.117 0.117s0.115 0.071 0.19 0.103c0.075 0.032 0.162 0.063 0.262 0.094 0.166 0.050 0.312 0.107 0.437 0.169 0.127 0.063 0.233 0.133 0.318 0.211s0.149 0.167 0.193 0.266c0.043 0.099 0.065 0.211 0.065 0.337 0 0.133-0.026 0.251-0.077 0.356s-0.126 0.193-0.224 0.266c-0.098 0.073-0.214 0.128-0.349 0.165s-0.287 0.056-0.454 0.056c-0.151 0-0.299-0.019-0.446-0.059-0.146-0.040-0.28-0.101-0.4-0.182-0.119-0.081-0.213-0.184-0.285-0.31s-0.107-0.274-0.107-0.446h0.63c0 0.095 0.015 0.175 0.044 0.241s0.070 0.119 0.124 0.159c0.054 0.040 0.119 0.070 0.192 0.088 0.075 0.018 0.158 0.027 0.247 0.027 0.109 0 0.198-0.015 0.268-0.046 0.071-0.031 0.124-0.073 0.157-0.128 0.035-0.054 0.052-0.116 0.052-0.184zM34.117 28.939v3.047h-0.626v-3.047h0.626zM35.055 28.939v0.492h-2.486v-0.492h2.486zM37.457 31.496v0.49h-1.622v-0.49h1.622zM36.040 28.939v3.047h-0.628v-3.047h0.628zM37.246 30.18v0.477h-1.41v-0.477h1.41zM37.455 28.939v0.492h-1.62v-0.492h1.62zM37.823 28.939h1.136c0.233 0 0.433 0.035 0.601 0.105 0.169 0.070 0.299 0.173 0.389 0.31s0.136 0.305 0.136 0.504c0 0.163-0.028 0.304-0.084 0.421-0.054 0.116-0.132 0.213-0.232 0.291-0.099 0.077-0.216 0.138-0.349 0.184l-0.199 0.105h-0.988l-0.004-0.49h0.734c0.11 0 0.202-0.020 0.274-0.059s0.127-0.094 0.163-0.163c0.038-0.070 0.056-0.151 0.056-0.243 0-0.098-0.018-0.182-0.054-0.253s-0.091-0.126-0.165-0.163-0.167-0.056-0.278-0.056h-0.509v2.555h-0.628v-3.047zM39.527 31.986l-0.695-1.358 0.663-0.004 0.703 1.333v0.029h-0.672zM42.823 30.9h-0.776v-0.49h0.776c0.12 0 0.218-0.020 0.293-0.059 0.075-0.041 0.13-0.096 0.165-0.167s0.052-0.151 0.052-0.241c0-0.091-0.017-0.175-0.052-0.253s-0.090-0.141-0.165-0.188-0.173-0.071-0.293-0.071h-0.559v2.555h-0.628v-3.047h1.187c0.239 0 0.443 0.043 0.613 0.13 0.172 0.085 0.303 0.203 0.393 0.354s0.136 0.323 0.136 0.517c0 0.197-0.045 0.367-0.136 0.511s-0.222 0.255-0.393 0.333c-0.17 0.078-0.375 0.117-0.613 0.117zM46.443 31.496v0.49h-1.622v-0.49h1.622zM45.026 28.939v3.047h-0.628v-3.047h0.628zM46.231 30.18v0.477h-1.41v-0.477h1.41zM46.441 28.939v0.492h-1.62v-0.492h1.62zM48.213 28.939v3.047h-0.626v-3.047h0.626zM49.151 28.939v0.492h-2.486v-0.492h2.486zM51.553 31.496v0.49h-1.622v-0.49h1.622zM50.136 28.939v3.047h-0.628v-3.047h0.628zM51.342 30.18v0.477h-1.41v-0.477h1.41zM51.551 28.939v0.492h-1.62v-0.492h1.62zM51.919 28.939h1.136c0.233 0 0.433 0.035 0.601 0.105 0.169 0.070 0.299 0.173 0.389 0.31s0.136 0.305 0.136 0.504c0 0.163-0.028 0.304-0.084 0.421-0.054 0.116-0.132 0.213-0.232 0.291-0.099 0.077-0.216 0.138-0.349 0.184l-0.199 0.105h-0.988l-0.004-0.49h0.734c0.11 0 0.202-0.020 0.274-0.059s0.127-0.094 0.163-0.163c0.038-0.070 0.056-0.151 0.056-0.243 0-0.098-0.018-0.182-0.054-0.253s-0.091-0.126-0.165-0.163c-0.074-0.038-0.167-0.056-0.278-0.056h-0.509v2.555h-0.628v-3.047zM53.623 31.986l-0.695-1.358 0.663-0.004 0.703 1.333v0.029h-0.672zM56.251 31.189c0-0.054-0.008-0.103-0.025-0.146-0.015-0.045-0.045-0.085-0.088-0.121-0.043-0.038-0.104-0.075-0.182-0.111s-0.179-0.074-0.303-0.113c-0.138-0.045-0.269-0.095-0.393-0.151-0.123-0.056-0.232-0.121-0.326-0.195-0.094-0.075-0.167-0.163-0.222-0.262-0.053-0.099-0.079-0.214-0.079-0.345 0-0.127 0.028-0.242 0.084-0.345 0.056-0.105 0.134-0.194 0.234-0.268 0.1-0.075 0.219-0.133 0.356-0.174 0.138-0.041 0.289-0.061 0.454-0.061 0.225 0 0.421 0.041 0.588 0.121s0.297 0.192 0.389 0.333c0.093 0.141 0.14 0.302 0.14 0.483h-0.624c0-0.089-0.019-0.167-0.056-0.234-0.036-0.068-0.092-0.122-0.167-0.161-0.074-0.039-0.167-0.059-0.28-0.059-0.109 0-0.199 0.017-0.272 0.050-0.073 0.032-0.127 0.076-0.163 0.132-0.036 0.054-0.054 0.116-0.054 0.184 0 0.052 0.013 0.098 0.038 0.14 0.026 0.042 0.066 0.081 0.117 0.117s0.115 0.071 0.19 0.103c0.075 0.032 0.163 0.063 0.262 0.094 0.166 0.050 0.312 0.107 0.437 0.169 0.127 0.063 0.233 0.133 0.318 0.211s0.149 0.167 0.193 0.266c0.043 0.099 0.065 0.211 0.065 0.337 0 0.133-0.026 0.251-0.077 0.356s-0.126 0.193-0.224 0.266c-0.098 0.073-0.214 0.128-0.349 0.165s-0.287 0.056-0.454 0.056c-0.151 0-0.299-0.019-0.446-0.059-0.146-0.040-0.28-0.101-0.4-0.182-0.119-0.081-0.213-0.184-0.285-0.31s-0.107-0.274-0.107-0.446h0.63c0 0.095 0.015 0.175 0.044 0.241s0.070 0.119 0.124 0.159c0.054 0.040 0.119 0.070 0.193 0.088 0.075 0.018 0.158 0.027 0.247 0.027 0.109 0 0.198-0.015 0.268-0.046 0.071-0.031 0.123-0.073 0.157-0.128 0.035-0.054 0.052-0.116 0.052-0.184z"></path>
</symbol>
<symbol id="icon-Logo3" viewBox="0 0 74 40">
<path d="M26.293 35.159c0.011 0 0.023 0.002 0.033 0.006s0.020 0.010 0.028 0.017l0.158 0.148c-0.122 0.12-0.274 0.216-0.444 0.281-0.199 0.071-0.413 0.106-0.629 0.101-0.203 0.004-0.404-0.029-0.591-0.094-0.169-0.060-0.321-0.151-0.446-0.266-0.127-0.119-0.225-0.259-0.288-0.411-0.069-0.169-0.103-0.348-0.101-0.527-0.003-0.181 0.034-0.36 0.108-0.529 0.069-0.153 0.173-0.293 0.306-0.411 0.135-0.116 0.296-0.207 0.473-0.268 0.194-0.064 0.401-0.096 0.609-0.094 0.193-0.004 0.386 0.025 0.566 0.086 0.156 0.058 0.299 0.138 0.424 0.238l-0.132 0.158c-0.009 0.011-0.020 0.021-0.034 0.029-0.016 0.009-0.034 0.013-0.053 0.012-0.021-0.001-0.040-0.007-0.057-0.017l-0.071-0.042-0.099-0.054c-0.043-0.020-0.087-0.037-0.132-0.052-0.059-0.018-0.119-0.032-0.179-0.042-0.077-0.012-0.156-0.018-0.235-0.017-0.15-0.002-0.299 0.023-0.438 0.071-0.13 0.045-0.246 0.112-0.343 0.199-0.098 0.092-0.174 0.199-0.223 0.317-0.056 0.134-0.083 0.276-0.081 0.418-0.002 0.144 0.025 0.288 0.081 0.425 0.048 0.116 0.122 0.223 0.219 0.315 0.090 0.086 0.202 0.152 0.327 0.195 0.129 0.046 0.267 0.069 0.406 0.067 0.081 0.001 0.161-0.004 0.241-0.014 0.13-0.014 0.255-0.052 0.365-0.113 0.055-0.031 0.107-0.066 0.156-0.104 0.020-0.016 0.047-0.026 0.075-0.027z"></path>
<path d="M30.847 34.414c0.002 0.179-0.034 0.356-0.106 0.524-0.064 0.152-0.166 0.291-0.297 0.407s-0.29 0.207-0.466 0.267c-0.386 0.126-0.813 0.126-1.199 0-0.175-0.061-0.332-0.152-0.463-0.268-0.131-0.118-0.233-0.258-0.3-0.411-0.142-0.339-0.142-0.71 0-1.050 0.067-0.153 0.169-0.293 0.3-0.413 0.132-0.112 0.29-0.2 0.463-0.258 0.386-0.128 0.813-0.128 1.199 0 0.175 0.061 0.334 0.152 0.465 0.268 0.13 0.117 0.231 0.255 0.298 0.406 0.073 0.169 0.109 0.348 0.106 0.527zM30.433 34.414c0.003-0.143-0.022-0.285-0.075-0.421-0.044-0.116-0.116-0.224-0.211-0.315-0.092-0.087-0.206-0.154-0.333-0.199-0.281-0.092-0.591-0.092-0.871 0-0.127 0.044-0.241 0.112-0.333 0.199-0.096 0.091-0.169 0.198-0.213 0.315-0.1 0.274-0.1 0.568 0 0.842 0.044 0.117 0.117 0.224 0.213 0.315 0.093 0.086 0.206 0.153 0.333 0.197 0.281 0.090 0.59 0.090 0.871 0 0.127-0.044 0.241-0.111 0.333-0.197 0.095-0.092 0.166-0.199 0.211-0.315 0.053-0.136 0.078-0.278 0.075-0.421z"></path>
<path d="M33.955 34.856l0.041 0.094c0.016-0.034 0.030-0.064 0.045-0.094 0.015-0.032 0.032-0.063 0.051-0.093l1.008-1.565c0.020-0.027 0.038-0.044 0.057-0.049 0.027-0.007 0.055-0.010 0.083-0.008h0.298v2.545h-0.353v-1.871c0-0.024 0-0.051 0-0.079-0.002-0.029-0.002-0.058 0-0.088l-1.013 1.587c-0.013 0.024-0.033 0.044-0.059 0.058s-0.056 0.021-0.087 0.021h-0.057c-0.031 0-0.061-0.007-0.087-0.021s-0.046-0.034-0.059-0.058l-1.043-1.597c0 0.030 0 0.061 0 0.091s0 0.057 0 0.081v1.871h-0.341v-2.54h0.298c0.028-0.001 0.056 0.001 0.083 0.008 0.024 0.010 0.044 0.028 0.055 0.049l1.029 1.567c0.020 0.029 0.037 0.059 0.051 0.091z"></path>
<path d="M37.746 34.73v0.953h-0.394v-2.542h0.879c0.166-0.003 0.331 0.016 0.491 0.056 0.128 0.031 0.246 0.085 0.347 0.158 0.088 0.069 0.155 0.154 0.197 0.249 0.047 0.104 0.069 0.214 0.067 0.325 0.002 0.111-0.023 0.222-0.073 0.325-0.047 0.098-0.12 0.185-0.213 0.254-0.101 0.076-0.22 0.134-0.349 0.169-0.154 0.042-0.314 0.062-0.475 0.059l-0.477-0.007zM37.746 34.457h0.477c0.104 0.001 0.207-0.012 0.306-0.039 0.081-0.023 0.157-0.061 0.221-0.109 0.059-0.047 0.105-0.104 0.134-0.168 0.032-0.068 0.048-0.141 0.047-0.214 0.005-0.071-0.009-0.141-0.039-0.207s-0.078-0.125-0.138-0.174c-0.151-0.101-0.34-0.149-0.53-0.136h-0.477v1.048z"></path>
<path d="M43.046 35.687h-0.312c-0.031 0.001-0.062-0.007-0.087-0.024-0.022-0.016-0.040-0.036-0.051-0.059l-0.268-0.615h-1.347l-0.278 0.615c-0.010 0.023-0.027 0.042-0.049 0.057-0.025 0.017-0.057 0.026-0.089 0.025h-0.312l1.183-2.546h0.41l1.199 2.546zM41.094 34.741h1.112l-0.469-1.036c-0.036-0.078-0.066-0.158-0.089-0.239l-0.045 0.133c-0.014 0.040-0.030 0.078-0.043 0.108l-0.465 1.034z"></path>
<path d="M44.75 33.153c0.024 0.011 0.044 0.027 0.059 0.046l1.725 1.919c0-0.030 0-0.061 0-0.089s0-0.057 0-0.084v-1.803h0.353v2.546h-0.197c-0.028 0.001-0.056-0.004-0.081-0.015-0.024-0.012-0.046-0.028-0.063-0.047l-1.723-1.917c0.002 0.029 0.002 0.058 0 0.088 0 0.029 0 0.054 0 0.078v1.814h-0.353v-2.546h0.209c0.024-0.001 0.049 0.004 0.071 0.012z"></path>
<path d="M49.793 34.674v1.011h-0.394v-1.011l-1.090-1.533h0.353c0.030-0.001 0.061 0.006 0.085 0.022 0.021 0.016 0.039 0.036 0.053 0.057l0.682 0.989c0.028 0.042 0.051 0.081 0.071 0.118s0.036 0.072 0.049 0.108l0.051-0.109c0.019-0.040 0.042-0.079 0.067-0.116l0.672-0.996c0.014-0.020 0.031-0.038 0.051-0.054 0.023-0.017 0.054-0.026 0.085-0.025h0.357l-1.092 1.54z"></path>
<path d="M33.759 28.869c0.171 0.019 0.345 0.034 0.521 0.047 2.66-1.017 4.911-2.681 6.471-4.785s2.359-4.553 2.298-7.043l-2.932-2.505c0.596 2.651 0.317 5.391-0.805 7.914s-3.045 4.729-5.551 6.372z"></path>
<path d="M32.713 28.753l0.079 0.014c2.679-1.637 4.721-3.923 5.862-6.562s1.33-5.51 0.542-8.242l-4.176-3.568c1.689 2.933 2.369 6.215 1.961 9.465s-1.888 6.334-4.267 8.894z"></path>
<path d="M46.875 20.030c-0.709 2.735-2.433 5.202-4.913 7.035-0.725 0.538-1.506 1.017-2.334 1.432 2.020-0.507 3.877-1.404 5.427-2.622s2.753-2.723 3.514-4.4l-1.694-1.445z"></path>
<path d="M46.211 19.627l-2.411-2.060c-0.046 2.349-0.828 4.644-2.264 6.648s-3.474 3.642-5.901 4.745h0.012c0.541-0 1.081-0.028 1.619-0.083 2.269-0.791 4.273-2.050 5.834-3.664s2.63-3.533 3.111-5.586z"></path>
<path d="M33.061 8.89l-2.877-2.461c-2.572 0.849-4.783 2.342-6.346 4.282s-2.402 4.239-2.411 6.595v0c0.010 2.603 1.035 5.129 2.914 7.177s4.504 3.504 7.459 4.135c2.638-2.746 4.183-6.14 4.41-9.688s-0.877-7.065-3.15-10.040z"></path>
<path d="M52.857 19.248c-0.010-3.088-1.451-6.047-4.007-8.231s-6.019-3.414-9.634-3.423c-1.67-0.001-3.326 0.262-4.884 0.777l17.613 15.049c0.603-1.33 0.912-2.744 0.911-4.171z"></path>
</symbol>
<symbol id="icon-Logo2" viewBox="0 0 74 40">
<path d="M35.795 4.239h-0.098c-0.15-0.009-0.3-0.013-0.45-0.016v0h-0.325c-0.284 0-0.573 0.007-0.86 0.022-0.022-0.002-0.043-0.002-0.065 0-2.603 0.147-5.154 0.798-7.511 1.916l-0.309 0.149v15.815l0.723-0.245c0.634-0.218 1.31-0.414 2.009-0.596 1.89-0.485 3.831-0.743 5.782-0.768v2.078c-0.258 0.002-0.51 0.009-0.761 0.022h-0.060c-1.501 0.082-2.991 0.311-4.449 0.683-1.846 0.462-3.626 1.156-5.3 2.065v-20.283c1.738-1.014 3.61-1.775 5.56-2.261 1.712-0.442 3.472-0.669 5.24-0.676h0.305c0.365 0.009 0.721 0.025 1.055 0.051 0.881 0.062 1.754 0.201 2.611 0.416v2.045c-0.832-0.194-1.678-0.321-2.53-0.381-0.017-0.001-0.035-0.003-0.052-0.004-0.176-0.015-0.353-0.030-0.517-0.030zM39.395 6.33c0.454 0.035 0.923 0.051 1.399 0.051 1.858-0.007 3.709-0.244 5.509-0.707 1.845-0.464 3.625-1.158 5.298-2.067v19.922c-1.739 1.013-3.611 1.774-5.562 2.261-1.712 0.44-3.472 0.667-5.24 0.674-1.339 0.011-2.675-0.147-3.975-0.469v-20.051c0.307 0.071 0.623 0.136 0.945 0.191 0.528 0.089 1.084 0.154 1.626 0.194zM49.534 6.484l-0.723 0.243c-0.665 0.223-1.335 0.423-2.009 0.601-1.962 0.504-3.979 0.763-6.004 0.77-0.472 0-0.905-0.013-1.324-0.040l-0.576-0.038v16.269l0.495 0.044c0.459 0.040 0.932 0.060 1.409 0.060 1.595-0.007 3.184-0.212 4.729-0.612 1.272-0.319 2.51-0.764 3.695-1.328l0.309-0.149v-15.821z"></path>
<path d="M25.526 32.295c-0.104-0.108-0.229-0.192-0.368-0.248s-0.287-0.082-0.436-0.077c-0.159-0.002-0.317 0.027-0.464 0.087-0.135 0.054-0.258 0.135-0.361 0.238-0.102 0.103-0.181 0.227-0.233 0.363-0.057 0.143-0.085 0.295-0.083 0.449v2.71c-0.006 0.191 0.030 0.381 0.107 0.556 0.064 0.139 0.156 0.263 0.271 0.363 0.108 0.091 0.236 0.157 0.372 0.193 0.132 0.037 0.268 0.056 0.405 0.056 0.151 0.001 0.3-0.031 0.437-0.094 0.135-0.059 0.258-0.144 0.361-0.251 0.101-0.105 0.181-0.228 0.237-0.363 0.058-0.137 0.087-0.284 0.087-0.432v-0.303h-0.708v0.242c0.002 0.082-0.012 0.165-0.042 0.242-0.023 0.058-0.058 0.11-0.103 0.153-0.044 0.035-0.094 0.062-0.148 0.078-0.048 0.016-0.098 0.024-0.148 0.025-0.063 0.007-0.127-0.002-0.186-0.028s-0.109-0.066-0.147-0.118c-0.067-0.109-0.099-0.235-0.094-0.363v-2.527c-0.004-0.14 0.025-0.279 0.087-0.405 0.037-0.057 0.089-0.103 0.15-0.132s0.129-0.040 0.197-0.032c0.061-0.002 0.122 0.011 0.177 0.037s0.103 0.066 0.139 0.115c0.079 0.104 0.121 0.232 0.117 0.363v0.234h0.701v-0.276c0.001-0.162-0.028-0.323-0.087-0.474-0.052-0.142-0.133-0.272-0.237-0.381z"></path>
<path d="M29.735 32.264c-0.226-0.191-0.511-0.296-0.806-0.298-0.144 0.001-0.287 0.026-0.423 0.076-0.138 0.049-0.264 0.124-0.374 0.222-0.117 0.106-0.211 0.235-0.275 0.38-0.071 0.166-0.106 0.345-0.103 0.525v2.599c-0.005 0.183 0.030 0.364 0.103 0.532 0.064 0.14 0.158 0.264 0.275 0.363 0.108 0.101 0.235 0.178 0.374 0.229 0.136 0.050 0.279 0.076 0.423 0.076s0.287-0.026 0.423-0.076c0.141-0.051 0.271-0.129 0.383-0.229 0.113-0.101 0.204-0.225 0.267-0.363 0.073-0.168 0.108-0.349 0.103-0.532v-2.599c0.004-0.18-0.032-0.359-0.103-0.525-0.063-0.143-0.154-0.272-0.267-0.38zM29.404 35.767c0.006 0.069-0.004 0.139-0.028 0.204s-0.063 0.124-0.113 0.172c-0.094 0.078-0.212 0.121-0.333 0.121s-0.24-0.043-0.333-0.121c-0.050-0.048-0.089-0.107-0.113-0.172s-0.034-0.135-0.028-0.204v-2.599c-0.006-0.069 0.004-0.139 0.028-0.204s0.063-0.124 0.113-0.172c0.094-0.078 0.211-0.121 0.333-0.121s0.24 0.043 0.333 0.121c0.050 0.048 0.089 0.107 0.113 0.172s0.034 0.135 0.028 0.204v2.599z"></path>
<path d="M35.262 36.928v-4.921h-0.681l-0.894 2.605h-0.013l-0.902-2.605h-0.674v4.921h0.703v-2.993h0.013l0.688 2.116h0.351l0.694-2.116h0.013v2.993h0.703z"></path>
<path d="M39.256 32.353c-0.108-0.121-0.245-0.214-0.398-0.269-0.164-0.054-0.337-0.079-0.51-0.076h-1.044v4.921h0.701v-1.922h0.361c0.219 0.010 0.436-0.036 0.632-0.134 0.159-0.089 0.292-0.218 0.385-0.376 0.081-0.131 0.136-0.277 0.161-0.429 0.028-0.185 0.040-0.372 0.038-0.559 0.007-0.236-0.016-0.472-0.069-0.703-0.047-0.17-0.136-0.326-0.258-0.452zM38.894 33.853c-0.003 0.089-0.025 0.176-0.065 0.256-0.040 0.076-0.103 0.136-0.181 0.172-0.104 0.046-0.217 0.068-0.331 0.062h-0.32v-1.673h0.361c0.109-0.005 0.217 0.016 0.316 0.062 0.072 0.042 0.13 0.105 0.164 0.182 0.038 0.086 0.059 0.18 0.061 0.274 0 0.104 0 0.213 0 0.327s0.007 0.233 0 0.338h-0.007z"></path>
<path d="M42.577 32.008h-0.575l-1.084 4.921h0.701l0.206-1.057h0.956l0.206 1.057h0.701l-1.111-4.921zM41.93 35.201l0.345-1.784h0.013l0.343 1.784h-0.701z"></path>
<path d="M47.107 34.972h-0.013l-1.059-2.964h-0.674v4.921h0.701v-2.959h0.014l1.071 2.959h0.659v-4.921h-0.701v2.964z"></path>
<path d="M51.391 32.008l-0.564 1.956h-0.014l-0.564-1.956h-0.743l0.963 2.841v2.080h0.701v-2.080l0.963-2.841h-0.743z"></path>
<path d="M23.571 38.318h0.338v0.948h0.229v-0.948h0.336v-0.194h-0.904v0.194z"></path>
<path d="M26.412 38.123l-0.443 1.142h0.244l0.094-0.26h0.455l0.098 0.26h0.249l-0.454-1.142h-0.244zM26.376 38.813l0.155-0.423 0.155 0.423h-0.311z"></path>
<path d="M29.22 38.844h0.264v0.147c-0.077 0.062-0.173 0.096-0.271 0.096-0.046 0.003-0.092-0.006-0.134-0.025s-0.079-0.048-0.108-0.084c-0.061-0.087-0.090-0.192-0.085-0.298 0-0.254 0.11-0.381 0.329-0.381 0.058-0.006 0.115 0.009 0.163 0.043s0.081 0.083 0.096 0.139l0.226-0.044c-0.049-0.223-0.21-0.336-0.484-0.336-0.147-0.004-0.29 0.049-0.399 0.147-0.058 0.057-0.102 0.126-0.131 0.201s-0.040 0.157-0.034 0.238c-0.007 0.156 0.046 0.309 0.146 0.429 0.056 0.058 0.124 0.102 0.199 0.131s0.155 0.041 0.235 0.036c0.179 0.005 0.352-0.060 0.484-0.182v-0.45h-0.495v0.193z"></path>
<path d="M32.088 38.123h-0.231v1.142h0.8v-0.194h-0.569v-0.948z"></path>
<path d="M34.513 38.123h-0.231v1.142h0.231v-1.142z"></path>
<path d="M36.883 38.886l-0.468-0.763h-0.224v1.142h0.215v-0.746l0.459 0.746h0.229v-1.142h-0.211v0.763z"></path>
<path d="M39.026 38.763h0.569v-0.194h-0.569v-0.251h0.613v-0.194h-0.844v1.142h0.867v-0.194h-0.636v-0.309z"></path>
<path d="M44.223 38.574h-0.45v-0.451h-0.229v1.142h0.229v-0.499h0.45v0.499h0.229v-1.142h-0.229v0.451z"></path>
<path d="M46.379 38.763h0.571v-0.194h-0.571v-0.251h0.614v-0.194h-0.844v1.142h0.866v-0.194h-0.636v-0.309z"></path>
<path d="M49.302 38.763c0.199-0.031 0.3-0.136 0.3-0.318 0.006-0.049-0.002-0.098-0.021-0.143s-0.051-0.083-0.091-0.112c-0.103-0.052-0.219-0.075-0.334-0.067h-0.484v1.143h0.229v-0.478h0.045c0.049-0.003 0.098 0.006 0.143 0.025 0.034 0.021 0.061 0.049 0.081 0.084l0.249 0.363h0.275l-0.139-0.223c-0.061-0.11-0.148-0.204-0.253-0.274zM49.071 38.605h-0.17v-0.287h0.181c0.079-0.006 0.158 0.003 0.233 0.027 0.017 0.015 0.030 0.033 0.039 0.054s0.013 0.043 0.012 0.065c-0.001 0.022-0.007 0.044-0.018 0.064s-0.025 0.037-0.043 0.050c-0.075 0.023-0.154 0.032-0.233 0.027z"></path>
<path d="M51.507 38.763h0.569v-0.194h-0.569v-0.251h0.614v-0.194h-0.846v1.142h0.867v-0.194h-0.636v-0.309z"></path>
</symbol>
<symbol id="icon-Logo" viewBox="0 0 74 40">
<path d="M27.143 5l5.006 4.769-9.291-0.006v23.137h24.286v-8.846l5 4.764v-23.818h-25zM46.923 23.494l-14.193-13.522h14.193v13.522zM42.516 29.516h-15.816v-15.561h1.118v14.507h14.698v1.054zM29.854 37.186l-0.589-1.212h-0.486l0.854 1.604v0.935h0.441v-0.935l0.854-1.604h-0.485l-0.589 1.212zM32.027 35.974h0.105l0.959 2.539h-0.46l-0.205-0.595h-0.983l-0.205 0.595h-0.459l0.956-2.539h0.293zM31.562 37.572h0.743l-0.372-1.077-0.371 1.077zM34.63 37.151c-0.019-0.024-0.038-0.048-0.055-0.071-0.065-0.086-0.116-0.169-0.152-0.249-0.036-0.081-0.054-0.165-0.054-0.251 0-0.133 0.027-0.246 0.082-0.342s0.132-0.169 0.232-0.22c0.1-0.052 0.217-0.079 0.351-0.079 0.129 0 0.24 0.026 0.333 0.079 0.094 0.051 0.166 0.119 0.216 0.204 0.051 0.085 0.077 0.178 0.077 0.279 0 0.080-0.014 0.154-0.044 0.22s-0.069 0.127-0.12 0.181c-0.051 0.055-0.11 0.106-0.178 0.155l-0.176 0.128 0.503 0.593c0.017-0.033 0.032-0.067 0.045-0.103 0.043-0.112 0.065-0.235 0.065-0.371h0.363c0 0.123-0.012 0.24-0.037 0.351-0.023 0.11-0.061 0.213-0.113 0.307-0.021 0.039-0.045 0.076-0.072 0.112l0.372 0.439h-0.486l-0.148-0.174c-0.080 0.061-0.167 0.108-0.261 0.142-0.123 0.044-0.255 0.066-0.394 0.066-0.169 0-0.314-0.031-0.438-0.092s-0.219-0.146-0.286-0.255c-0.066-0.108-0.099-0.232-0.099-0.371 0-0.104 0.021-0.194 0.064-0.272 0.043-0.079 0.102-0.152 0.176-0.22 0.069-0.062 0.147-0.125 0.235-0.187zM34.838 37.406l-0.053 0.038c-0.062 0.050-0.108 0.098-0.138 0.145-0.029 0.045-0.048 0.087-0.057 0.126s-0.014 0.072-0.014 0.101c0 0.074 0.016 0.142 0.047 0.202 0.033 0.060 0.080 0.109 0.141 0.145 0.063 0.035 0.139 0.052 0.228 0.052 0.096 0 0.19-0.021 0.281-0.064 0.045-0.022 0.089-0.049 0.129-0.080l-0.565-0.664zM34.939 36.943l0.156-0.105c0.073-0.049 0.126-0.096 0.157-0.143 0.031-0.048 0.047-0.107 0.047-0.178 0-0.060-0.023-0.116-0.070-0.167s-0.112-0.077-0.197-0.077c-0.059 0-0.109 0.014-0.15 0.042-0.041 0.027-0.071 0.063-0.092 0.108-0.020 0.044-0.030 0.094-0.030 0.148 0 0.052 0.013 0.106 0.040 0.162 0.027 0.055 0.063 0.112 0.11 0.173 0.009 0.012 0.019 0.024 0.029 0.037zM39.381 37.687h-0.436c-0.013 0.11-0.039 0.204-0.080 0.281-0.039 0.076-0.098 0.133-0.176 0.173-0.077 0.039-0.177 0.059-0.302 0.059-0.102 0-0.19-0.020-0.263-0.061s-0.134-0.098-0.181-0.173c-0.046-0.074-0.081-0.163-0.105-0.267-0.022-0.105-0.033-0.221-0.033-0.349v-0.214c0-0.135 0.012-0.255 0.037-0.359 0.026-0.106 0.063-0.195 0.113-0.267s0.112-0.127 0.187-0.164c0.074-0.037 0.162-0.056 0.262-0.056 0.122 0 0.221 0.021 0.296 0.063 0.076 0.041 0.133 0.1 0.171 0.178 0.039 0.078 0.065 0.171 0.077 0.281h0.436c-0.017-0.17-0.065-0.32-0.143-0.452-0.077-0.131-0.185-0.234-0.324-0.309s-0.31-0.112-0.513-0.112c-0.159 0-0.303 0.028-0.431 0.084-0.127 0.056-0.235 0.137-0.326 0.242-0.091 0.105-0.16 0.231-0.209 0.378-0.048 0.148-0.071 0.313-0.071 0.495v0.211c0 0.182 0.023 0.348 0.070 0.495 0.048 0.148 0.116 0.274 0.206 0.378 0.089 0.103 0.197 0.184 0.323 0.241 0.126 0.056 0.267 0.084 0.424 0.084 0.205 0 0.378-0.037 0.521-0.112s0.254-0.176 0.333-0.305c0.079-0.13 0.126-0.279 0.139-0.445zM41.803 37.314v-0.139c0-0.192-0.026-0.363-0.077-0.514-0.050-0.152-0.121-0.282-0.214-0.389-0.093-0.108-0.204-0.19-0.333-0.246-0.129-0.057-0.272-0.085-0.429-0.085-0.156 0-0.298 0.029-0.427 0.085-0.128 0.056-0.239 0.138-0.333 0.246-0.093 0.107-0.165 0.237-0.216 0.389-0.051 0.151-0.077 0.323-0.077 0.514v0.139c0 0.192 0.026 0.364 0.077 0.516 0.052 0.152 0.126 0.282 0.22 0.389s0.205 0.189 0.333 0.246c0.129 0.056 0.271 0.084 0.427 0.084 0.157 0 0.3-0.028 0.429-0.084 0.129-0.057 0.239-0.139 0.331-0.246 0.093-0.107 0.164-0.237 0.214-0.389s0.075-0.324 0.075-0.516zM41.365 37.171v0.143c0 0.142-0.014 0.267-0.042 0.377-0.027 0.109-0.066 0.202-0.119 0.277-0.052 0.074-0.116 0.131-0.192 0.169-0.076 0.037-0.162 0.056-0.26 0.056-0.096 0-0.183-0.019-0.258-0.056-0.076-0.038-0.141-0.095-0.195-0.169-0.053-0.076-0.094-0.168-0.122-0.277s-0.042-0.235-0.042-0.377v-0.143c0-0.142 0.014-0.267 0.042-0.375 0.028-0.109 0.068-0.201 0.12-0.274 0.053-0.074 0.118-0.13 0.194-0.167 0.076-0.038 0.162-0.058 0.258-0.058s0.183 0.019 0.26 0.058c0.077 0.037 0.141 0.093 0.194 0.167 0.053 0.073 0.094 0.164 0.12 0.274 0.028 0.108 0.042 0.233 0.042 0.375z"></path>
</symbol>
<symbol id="icon-linkedin" viewBox="0 0 40 40">
<path d="M39.99 40v-0.002h0.010v-14.67c0-7.177-1.545-12.705-9.935-12.705-4.033 0-6.74 2.213-7.845 4.312h-0.117v-3.642h-7.955v26.705h8.283v-13.223c0-3.482 0.66-6.848 4.972-6.848 4.249 0 4.312 3.973 4.312 7.072v13.002h8.275z"></path>
<path d="M0.66 13.295h8.293v26.705h-8.293v-26.705z"></path>
<path d="M4.803-0c-2.652 0-4.803 2.152-4.803 4.803s2.152 4.848 4.803 4.848c2.652 0 4.803-2.197 4.803-4.848-0.002-2.652-2.153-4.803-4.803-4.803v0z"></path>
</symbol>
<symbol id="icon-facebook" viewBox="0 0 40 40">
<path d="M26.662 6.641h3.652v-6.36c-0.63-0.087-2.797-0.282-5.32-0.282-5.265 0-8.872 3.312-8.872 9.398v5.602h-5.81v7.11h5.81v17.89h7.123v-17.888h5.575l0.885-7.11h-6.462v-4.898c0.002-2.055 0.555-3.462 3.418-3.462z"></path>
</symbol>
<symbol id="icon-twitter" viewBox="0 0 40 40">
<path d="M40 7.597c-1.488 0.652-3.072 1.085-4.725 1.295 1.7-1.015 2.998-2.61 3.608-4.532-1.585 0.945-3.335 1.612-5.2 1.985-1.505-1.603-3.65-2.595-5.99-2.595-4.54 0-8.195 3.685-8.195 8.203 0 0.65 0.055 1.275 0.19 1.87-6.817-0.332-12.85-3.6-16.902-8.578-0.707 1.228-1.123 2.632-1.123 4.145 0 2.84 1.462 5.357 3.642 6.815-1.317-0.025-2.61-0.408-3.705-1.010 0 0.025 0 0.058 0 0.090 0 3.985 2.842 7.295 6.57 8.057-0.667 0.183-1.395 0.27-2.15 0.27-0.525 0-1.055-0.030-1.553-0.14 1.062 3.248 4.078 5.635 7.662 5.713-2.79 2.183-6.332 3.497-10.168 3.497-0.673 0-1.318-0.030-1.963-0.112 3.633 2.342 7.938 3.68 12.58 3.68 15.090 0 23.34-12.5 23.34-23.335 0-0.362-0.013-0.713-0.030-1.060 1.627-1.155 2.995-2.598 4.11-4.258z"></path>
</symbol>
<symbol id="icon-instagram" viewBox="0 0 40 40">
<path d="M39.961 11.76c-0.094-2.125-0.438-3.586-0.93-4.853-0.508-1.344-1.289-2.547-2.313-3.547-1-1.016-2.211-1.805-3.54-2.305-1.274-0.492-2.727-0.836-4.853-0.93-2.141-0.102-2.821-0.125-8.252-0.125s-6.111 0.024-8.244 0.117c-2.125 0.094-3.587 0.438-4.852 0.93-1.344 0.508-2.548 1.289-3.548 2.313-1.016 1-1.805 2.211-2.305 3.54-0.492 1.274-0.836 2.727-0.93 4.852-0.102 2.141-0.125 2.821-0.125 8.252s0.024 6.11 0.117 8.244c0.094 2.125 0.438 3.586 0.93 4.853 0.508 1.344 1.297 2.547 2.313 3.547 1 1.016 2.211 1.805 3.54 2.305 1.274 0.492 2.727 0.836 4.853 0.93 2.133 0.094 2.813 0.117 8.244 0.117s6.111-0.023 8.244-0.117c2.125-0.094 3.586-0.437 4.852-0.93 2.688-1.039 4.814-3.164 5.853-5.852 0.492-1.274 0.836-2.727 0.93-4.852 0.094-2.134 0.117-2.813 0.117-8.244s-0.008-6.111-0.102-8.244zM36.359 28.091c-0.086 1.954-0.414 3.009-0.688 3.712-0.672 1.742-2.055 3.126-3.798 3.798-0.703 0.274-1.766 0.602-3.712 0.688-2.11 0.094-2.742 0.117-8.079 0.117s-5.978-0.023-8.080-0.117c-1.954-0.086-3.008-0.414-3.712-0.688-0.867-0.321-1.656-0.829-2.297-1.492-0.664-0.649-1.172-1.43-1.493-2.297-0.274-0.703-0.602-1.766-0.687-3.712-0.094-2.11-0.117-2.743-0.117-8.080s0.023-5.978 0.117-8.080c0.086-1.954 0.414-3.008 0.687-3.712 0.321-0.867 0.828-1.656 1.501-2.298 0.648-0.664 1.43-1.172 2.297-1.492 0.703-0.274 1.766-0.602 3.712-0.688 2.11-0.094 2.743-0.117 8.080-0.117 5.345 0 5.978 0.024 8.080 0.117 1.954 0.086 3.009 0.414 3.712 0.688 0.867 0.32 1.656 0.828 2.297 1.492 0.664 0.649 1.172 1.43 1.492 2.298 0.274 0.703 0.601 1.766 0.688 3.712 0.094 2.11 0.117 2.743 0.117 8.080s-0.024 5.962-0.117 8.072z"></path>
<path d="M20.074 9.728c-5.673 0-10.275 4.602-10.275 10.275s4.603 10.275 10.275 10.275c5.673 0 10.275-4.602 10.275-10.275s-4.602-10.275-10.275-10.275zM20.074 26.669c-3.68 0-6.665-2.985-6.665-6.665s2.985-6.665 6.665-6.665c3.681 0 6.665 2.985 6.665 6.665s-2.985 6.665-6.665 6.665z"></path>
<path d="M33.155 9.322c0 1.325-1.074 2.399-2.399 2.399s-2.399-1.074-2.399-2.399c0-1.325 1.074-2.399 2.399-2.399s2.399 1.074 2.399 2.399z"></path>
</symbol>
<symbol id="icon-close-black-18dp-2-1" viewBox="0 0 40 40">
<path d="M40 4.029l-4.029-4.029-15.971 15.971-15.971-15.971-4.029 4.029 15.971 15.971-15.971 15.971 4.029 4.029 15.971-15.971 15.971 15.971 4.029-4.029-15.971-15.971 15.971-15.971z"></path>
</symbol>
<symbol id="icon-Checkbox" viewBox="0 0 53 40">
<path d="M38.202 1.631c0.548-0.481 1.277-0.748 2.033-0.742s1.481 0.282 2.021 0.771c0.54 0.489 0.853 1.153 0.873 1.85s-0.255 1.376-0.766 1.89l-15.517 17.913c-0.267 0.265-0.589 0.478-0.947 0.626s-0.745 0.227-1.137 0.234c-0.392 0.007-0.782-0.060-1.145-0.195s-0.694-0.337-0.971-0.593l-10.29-9.498c-0.287-0.246-0.516-0.544-0.676-0.874s-0.245-0.687-0.252-1.048c-0.007-0.361 0.065-0.721 0.212-1.056s0.365-0.64 0.642-0.895c0.277-0.256 0.607-0.457 0.97-0.593s0.752-0.202 1.144-0.196c0.392 0.006 0.778 0.086 1.136 0.233s0.68 0.359 0.947 0.624l8.143 7.513 13.506-15.885c0.024-0.028 0.050-0.054 0.078-0.079h-0.004z"></path>
</symbol>
<symbol id="icon-Checkbox" viewBox="0 0 53 40">
<path d="M38.202 1.631c0.548-0.481 1.277-0.748 2.033-0.742s1.481 0.282 2.021 0.771c0.54 0.489 0.853 1.153 0.873 1.85s-0.255 1.376-0.766 1.89l-15.517 17.913c-0.267 0.265-0.589 0.478-0.947 0.626s-0.745 0.227-1.137 0.234c-0.392 0.007-0.782-0.060-1.145-0.195s-0.694-0.337-0.971-0.593l-10.29-9.498c-0.287-0.246-0.516-0.544-0.676-0.874s-0.245-0.687-0.252-1.048c-0.007-0.361 0.065-0.721 0.212-1.056s0.365-0.64 0.642-0.895c0.277-0.256 0.607-0.457 0.97-0.593s0.752-0.202 1.144-0.196c0.392 0.006 0.778 0.086 1.136 0.233s0.68 0.359 0.947 0.624l8.143 7.513 13.506-15.885c0.024-0.028 0.050-0.054 0.078-0.079h-0.004z"></path>
</symbol>
<symbol id="icon-email-black-18dp-1" viewBox="0 0 30 40">
<path d="M25 10h-20c-1.375 0-2.488 1.125-2.488 2.5l-0.013 15c0 1.375 1.125 2.5 2.5 2.5h20c1.375 0 2.5-1.125 2.5-2.5v-15c0-1.375-1.125-2.5-2.5-2.5zM24.5 15.313l-8.837 5.525c-0.4 0.25-0.925 0.25-1.325 0l-8.838-5.525c-0.313-0.2-0.5-0.537-0.5-0.9 0-0.838 0.913-1.338 1.625-0.9l8.375 5.237 8.375-5.238c0.712-0.438 1.625 0.063 1.625 0.9 0 0.362-0.188 0.7-0.5 0.9z"></path>
</symbol>
<symbol id="icon-person-black-18dp-1" viewBox="0 0 40 40">
<path d="M20 20c3.683 0 6.667-2.983 6.667-6.667s-2.983-6.667-6.667-6.667c-3.683 0-6.667 2.983-6.667 6.667s2.983 6.667 6.667 6.667zM20 23.333c-4.45 0-13.333 2.233-13.333 6.667v1.667c0 0.917 0.75 1.667 1.667 1.667h23.333c0.917 0 1.667-0.75 1.667-1.667v-1.667c0-4.433-8.883-6.667-13.333-6.667z"></path>
</symbol>
<symbol id="icon-phone-black-18dp-1" viewBox="0 0 30 40">
<path d="M24.544 23.109l-3.064-0.35c-0.736-0.084-1.459 0.169-1.978 0.688l-2.219 2.219c-3.413-1.737-6.212-4.523-7.948-7.948l2.231-2.231c0.519-0.519 0.772-1.242 0.688-1.978l-0.35-3.039c-0.145-1.218-1.17-2.135-2.4-2.135h-2.087c-1.363 0-2.497 1.134-2.412 2.497 0.639 10.3 8.877 18.526 19.165 19.165 1.363 0.084 2.497-1.049 2.497-2.412v-2.087c0.012-1.218-0.904-2.243-2.123-2.388z"></path>
</symbol>

<symbol id="icon-Vector-phone" viewBox="0 0 40 40">
<path d="M36.081 27.277l-5.656-0.646c-1.358-0.156-2.694 0.312-3.652 1.269l-4.097 4.097c-6.302-3.206-11.468-8.35-14.674-14.674l4.119-4.119c0.957-0.957 1.425-2.294 1.269-3.652l-0.646-5.611c-0.267-2.249-2.16-3.941-4.431-3.941h-3.852c-2.516 0-4.609 2.093-4.453 4.609 1.18 19.016 16.389 34.202 35.382 35.382 2.516 0.156 4.609-1.937 4.609-4.453v-3.852c0.022-2.249-1.67-4.142-3.919-4.409z"></path>
</symbol>
<symbol id="icon-Vector" viewBox="0 0 40 40">
<path d="M20 20c5.525 0 10-4.475 10-10s-4.475-10-10-10c-5.525 0-10 4.475-10 10s4.475 10 10 10zM20 25c-6.675 0-20 3.35-20 10v2.5c0 1.375 1.125 2.5 2.5 2.5h35c1.375 0 2.5-1.125 2.5-2.5v-2.5c0-6.65-13.325-10-20-10z"></path>
</symbol>
<symbol id="icon-Vector-email" viewBox="0 0 53 40">
<path d="M46.667 0h-40c-2.75 0-4.975 2.25-4.975 5l-0.025 30c0 2.75 2.25 5 5 5h40c2.75 0 5-2.25 5-5v-30c0-2.75-2.25-5-5-5zM45.667 10.625l-17.675 11.050c-0.8 0.5-1.85 0.5-2.65 0l-17.675-11.050c-0.625-0.4-1-1.075-1-1.8 0-1.675 1.825-2.675 3.25-1.8l16.75 10.475 16.75-10.475c1.425-0.875 3.25 0.125 3.25 1.8 0 0.725-0.375 1.4-1 1.8z"></path>
</symbol>
 <symbol id="icon-email" viewBox="0 0 24 32">
      <path d="M20 8H4c-1.1 0-1.99.9-1.99 2L2 22c0 1.1.9 2 2 2h16c1.1 0 2-.9 2-2V10c0-1.1-.9-2-2-2zm-.4 4.25-7.07 4.42c-.32.2-.74.2-1.06 0L4.4 12.25a.85.85 0 1 1 .9-1.44L12 15l6.7-4.19a.85.85 0 1 1 .9 1.44z"/>
    </symbol>
    <symbol id="icon-person" viewBox="0 0 32 32">
      <path d="M16 16c2.947 0 5.333-2.387 5.333-5.333S18.946 5.334 16 5.334c-2.947 0-5.333 2.387-5.333 5.333S13.054 16 16 16zm0 2.667c-3.56 0-10.667 1.787-10.667 5.333v1.333c0 .733.6 1.333 1.333 1.333h18.667c.733 0 1.333-.6 1.333-1.333V24c0-3.547-7.107-5.333-10.667-5.333z"/>
    </symbol>
    <symbol id="icon-phone" viewBox="0 0 24 32">
      <path d="m19.635 18.487-2.451-.28a1.92 1.92 0 0 0-1.582.55l-1.775 1.775a14.514 14.514 0 0 1-6.359-6.359l1.785-1.785c.415-.415.618-.994.55-1.582l-.28-2.432a1.931 1.931 0 0 0-1.92-1.708H5.934c-1.09 0-1.997.907-1.93 1.997.511 8.24 7.102 14.821 15.332 15.332 1.09.068 1.997-.839 1.997-1.93v-1.669a1.913 1.913 0 0 0-1.698-1.911z"/>
    </symbol>
<symbol id="icon-icon-send" viewBox="0 0 48 40">
<path d="M48 0l-48 22.5 15.34 4.734 23.66-18.484-17.997 20.233 0.015 0.005-0.018-0.005v11.017l8.603-8.363 10.898 3.363 7.5-35z"></path>
</symbol>

</defs>
</svg>

